<?xml version="1.0" encoding="UTF-8"?><svg id="Layer_1" xmlns="http://www.w3.org/2000/svg" viewBox="0 0 820.93 820.02"><path d="M238.98,0L0,238.98v97.6h28.28v-83.92L252.66,28.28h80.27V0s-93.95,0-93.95,0Z" style="fill:#fff;"/><path d="M488,0v28.28h80.27l224.39,224.39v83.92h28.28v-97.6L581.95,0h-93.95Z" style="fill:#fff;"/><path d="M0,491.65v89.39l238.98,238.98h93.95v-28.28h-80.27L28.28,567.35v-75.71H0Z" style="fill:#fff;"/><path d="M792.65,491.65v75.71l-224.39,224.39h-80.27v28.28h93.95l238.98-238.98v-89.39s-28.28,0-28.28,0Z" style="fill:#fff;"/><path d="M651.27,423.24h-114.93v-28.28h114.93v28.28Z" style="fill:#fff;"/><path d="M288.24,423.24h-114.93v-28.28h114.93v28.28Z" style="fill:#fff;"/><path d="M397.7,647.62v-114.93h28.28v114.93h-28.28Z" style="fill:#fff;"/><path d="M397.7,284.59v-114.93h28.28v114.93h-28.28Z" style="fill:#fff;"/><path d="M397.7,394.05v28.28h28.28v-28.28h-28.28Z" style="fill:#fff;"/></svg>