<svg xmlns="http://www.w3.org/2000/svg" width="48" height="48" id="crosshair">
  <path fill="#04dbdd" d="M48 24A24 24 0 0 0 24 0 24 24 0 0 0 0 24a24 24 0 0 0 24 24 24 24 0 0 0 24-24z"></path>
  <g fill="#fff" color="#000" font-family="sans-serif" font-weight="400">
    <path d="M-787.014 1128.252c-7.726 0-14 6.274-14 14s6.274 14 14 14 14-6.274 14-14-6.274-14-14-14zm0 1c7.186 0 13 5.814 13 13s-5.814 13-13 13c-7.185 0-13-5.814-13-13s5.815-13 13-13z" overflow="visible" style="line-height:normal;text-indent:0;text-align:start;text-decoration-line:none;text-decoration-style:solid;text-decoration-color:#000;text-transform:none;white-space:normal;isolation:auto;mix-blend-mode:normal;solid-color:#000;solid-opacity:1" transform="translate(811.013 -1118.252)"></path>
    <path fill-rule="evenodd" d="M-797.514 2160.114v5h1v-5zm20 0v5h1v-5zm-17.5.5v4h1v-4zm15 0v4h1v-4zm-12.5.5v3h1v-3zm10 0v3h1v-3z" overflow="visible" style="line-height:normal;text-indent:0;text-align:start;text-decoration-line:none;text-decoration-style:solid;text-decoration-color:#000;text-transform:none;white-space:normal;isolation:auto;mix-blend-mode:normal;solid-color:#000;solid-opacity:1" transform="translate(811.013 -2138.614)"></path>
    <path fill-rule="evenodd" d="M-800.514 2162.114v1h4v-1zm4.75 0v1h1.75v-1zm2.5 0v1h1.75v-1zm2.5 0v1h9.25v-1zm10 0v1h1.75v-1zm2.5 0v1h1.75v-1zm2.5 0v1h2.25v-1zm-11.75-13v2.25h1v-2.25zm0 3v1.75h1v-1.75zm0 2.5v1.75h1v-1.75z" overflow="visible" style="line-height:normal;text-indent:0;text-align:start;text-decoration-line:none;text-decoration-style:solid;text-decoration-color:#000;text-transform:none;white-space:normal;isolation:auto;mix-blend-mode:normal;solid-color:#000;solid-opacity:1" transform="translate(811.013 -2138.614)"></path>
    <path fill-rule="evenodd" d="M-787.514 2157.114v11h1v-11zm0 11.75v1.75h1v-1.75zm0 2.5v1.75h1v-1.75zm0 2.5v2.25h1v-2.25z" overflow="visible" style="line-height:normal;text-indent:0;text-align:start;text-decoration-line:none;text-decoration-style:solid;text-decoration-color:#000;text-transform:none;white-space:normal;isolation:auto;mix-blend-mode:normal;solid-color:#000;solid-opacity:1" transform="translate(811.013 -2138.614)"></path>
    <path fill-rule="evenodd" d="M-788.514 2167.113v1h3v-1zm-1 5v1h5v-1zm.5-2.5v1h4v-1zm.5-12.5v1h3v-1zm-1-5v1h5v-1zm.5 2.5v1h4v-1z" overflow="visible" style="line-height:normal;text-indent:0;text-align:start;text-decoration-line:none;text-decoration-style:solid;text-decoration-color:#000;text-transform:none;white-space:normal;isolation:auto;mix-blend-mode:normal;solid-color:#000;solid-opacity:1" transform="translate(811.013 -2138.614)"></path>
  </g>
</svg>
